<?xml version="1.0" encoding="UTF-8"?>
<svg version="1.1" xmlns="http://www.w3.org/2000/svg" width="32" height="32">
<path d="M0 0 C10.56 0 21.12 0 32 0 C32 10.56 32 21.12 32 32 C21.44 32 10.88 32 0 32 C0 21.44 0 10.88 0 0 Z " fill="#037BCC" transform="translate(0,0)"/>
<path d="M0 0 C1.98 0 3.96 0 6 0 C6.62021955 2.92389215 7.09054844 5.7761295 7.4375 8.75 C7.623125 9.8225 7.80875 10.895 8 12 C8.66 12.33 9.32 12.66 10 13 C7.69 13 5.38 13 3 13 C3.66 12.67 4.32 12.34 5 12 C3.68938409 7.76570244 2.05643741 3.92592596 0 0 Z " fill="#F7FAFD" transform="translate(16,8)"/>
<path d="M0 0 C2.64 0 5.28 0 8 0 C7.01 0.33 6.02 0.66 5 1 C5.33 4.96 5.66 8.92 6 13 C4.02 13 2.04 13 0 13 C0.66 12.67 1.32 12.34 2 12 C2 8.37 2 4.74 2 1 C1.34 0.67 0.68 0.34 0 0 Z " fill="#FBFDFE" transform="translate(3,8)"/>
<path d="M0 0 C0.99 0 1.98 0 3 0 C3.625 1.8125 3.625 1.8125 4 4 C3.01 5.485 3.01 5.485 2 7 C2.99 8.65 3.98 10.3 5 12 C3.68 12 2.36 12 1 12 C-0.625 9.25 -0.625 9.25 -2 6 C-1.1875 3.75 -1.1875 3.75 0 2 C0 1.34 0 0.68 0 0 Z " fill="#F6FAFD" transform="translate(11,9)"/>
<path d="M0 0 C0.99 0 1.98 0 3 0 C3.33 1.32 3.66 2.64 4 4 C2.02 4.99 2.02 4.99 0 6 C0 4.02 0 2.04 0 0 Z " fill="#1384CF" transform="translate(8,9)"/>
</svg>
